<?xml version="1.0" encoding="utf-8"?>

<!DOCTYPE svg PUBLIC "-//W3C//DTD SVG 1.1//EN" "http://www.w3.org/Graphics/SVG/1.1/DTD/svg11.dtd">
<!-- Uploaded to: SVG Repo, www.svgrepo.com, Generator: SVG Repo Mixer Tools -->
<svg version="1.1" id="Layer_1" xmlns="http://www.w3.org/2000/svg" xmlns:xlink="http://www.w3.org/1999/xlink" 
	 width="60px" height="60px" viewBox="0 0 100 100" enable-background="new 0 0 100 100" xml:space="preserve">
<g>
	<g>
		<path fill="none" stroke="#000000" stroke-width="4" stroke-miterlimit="10" d="M76,89c0,2.2-1.8,4-4,4H28c-2.2,0-4-1.8-4-4l0,0
			c0-2.2,1.8-4,4-4h44C74.2,85,76,86.8,76,89L76,89z"/>
	</g>
	<path fill="none" stroke="#000000" stroke-width="4" stroke-miterlimit="10" d="M71.86,47.477C68.391,55.789,64,66.297,64,79H36
		l-2-22c7.18,0,13-5.82,13-13"/>
	<g>
		<path fill="none" stroke="#000000" stroke-width="4" stroke-miterlimit="10" d="M71,82c0,1.65-1.35,3-3,3H32c-1.65,0-3-1.35-3-3
			l0,0c0-1.65,1.35-3,3-3h36C69.65,79,71,80.35,71,82L71,82z"/>
	</g>
	<line fill="none" stroke="#000000" stroke-width="4" stroke-miterlimit="10" x1="27" y1="45" x2="32" y2="41"/>
	<line fill="none" stroke="#000000" stroke-width="4" stroke-miterlimit="10" x1="41" y1="24" x2="46" y2="21"/>
	<line fill="none" stroke="#000000" stroke-width="4" stroke-miterlimit="10" x1="24" y1="39" x2="27" y2="37"/>
	<path fill="none" stroke="#000000" stroke-width="4" stroke-miterlimit="10" d="M52,20V10c13.255,0,24,10.745,24,24
		S65.255,58,52,58"/>
	<path fill="none" stroke="#000000" stroke-width="4" stroke-miterlimit="10" d="M20,38c0-8.24,16-14.169,16-16c0-3.866,3.134-7,7-7
		h9"/>
	<path fill="none" stroke="#000000" stroke-width="4" stroke-miterlimit="10" d="M20,38c0,3.866,3.134,7,7,7"/>
	<path fill="none" stroke="#000000" stroke-width="4" stroke-miterlimit="10" d="M28,45c0,2.209,1.791,4,4,4s4-1.791,4-4l7-3
		c2.539,2.539,6.654,2.539,9.192,0s2.539-6.654,0-9.192"/>
</g>
</svg>