<?xml version="1.0" encoding="utf-8"?>

<!DOCTYPE svg PUBLIC "-//W3C//DTD SVG 1.1//EN" "http://www.w3.org/Graphics/SVG/1.1/DTD/svg11.dtd">
<!-- Uploaded to: SVG Repo, www.svgrepo.com, Generator: SVG Repo Mixer Tools -->
<svg version="1.1" id="Layer_1" xmlns="http://www.w3.org/2000/svg" xmlns:xlink="http://www.w3.org/1999/xlink" 
	 width="60px" height="60px" viewBox="0 0 100 100" enable-background="new 0 0 100 100" xml:space="preserve">
<g>
	<g>
		<path fill="none" stroke="#000000" stroke-width="4" stroke-miterlimit="10" d="M73,89c0,2.2-1.8,4-4,4H31c-2.2,0-4-1.8-4-4l0,0
			c0-2.2,1.8-4,4-4h38C71.2,85,73,86.8,73,89L73,89z"/>
	</g>
	<g>
		<path fill="none" stroke="#000000" stroke-width="4" stroke-miterlimit="10" d="M63,36c0,1.65-1.35,3-3,3H40c-1.65,0-3-1.35-3-3
			l0,0c0-1.65,1.35-3,3-3h20C61.65,33,63,34.35,63,36L63,36z"/>
	</g>
	<g>
		<path fill="none" stroke="#000000" stroke-width="4" stroke-miterlimit="10" d="M68,82c0,1.65-1.35,3-3,3H35c-1.65,0-3-1.35-3-3
			l0,0c0-1.65,1.35-3,3-3h30C66.65,79,68,80.35,68,82L68,82z"/>
	</g>
	<polyline fill="none" stroke="#000000" stroke-width="4" stroke-miterlimit="10" points="34,15 41,33 59,33 66,15 	"/>
	<path fill="none" stroke="#000000" stroke-width="4" stroke-miterlimit="10" d="M36,20c0-1.657,6.268-3,14-3s14,1.343,14,3"/>
	<circle fill="none" stroke="#000000" stroke-width="4" stroke-miterlimit="10" cx="50" cy="13" r="4"/>
	<line fill="none" stroke="#000000" stroke-width="4" stroke-miterlimit="10" x1="37" y1="23" x2="63" y2="23"/>
	<path fill="none" stroke="#000000" stroke-width="4" stroke-miterlimit="10" d="M62.61,79c-0.946-6.487-3.306-10.059-3.583-40
		H40.973c-0.277,29.941-2.637,33.513-3.583,40H62.61z"/>
</g>
</svg>