<?xml version="1.0" encoding="utf-8"?>

<!DOCTYPE svg PUBLIC "-//W3C//DTD SVG 1.1//EN" "http://www.w3.org/Graphics/SVG/1.1/DTD/svg11.dtd">
<!-- Uploaded to: SVG Repo, www.svgrepo.com, Generator: SVG Repo Mixer Tools -->
<svg version="1.1" id="Layer_1" xmlns="http://www.w3.org/2000/svg" xmlns:xlink="http://www.w3.org/1999/xlink" 
	 width="60px" height="60px" viewBox="0 0 100 100" enable-background="new 0 0 100 100" xml:space="preserve">
<g>
	<g>
		<path fill="none" stroke="#000000" stroke-width="4" stroke-miterlimit="10" d="M77,89c0,2.2-1.8,4-4,4H27c-2.2,0-4-1.8-4-4l0,0
			c0-2.2,1.8-4,4-4h46C75.2,85,77,86.8,77,89L77,89z"/>
	</g>
	<g>
		<path fill="none" stroke="#000000" stroke-width="4" stroke-miterlimit="10" d="M67,32c0,1.65-1.35,3-3,3H36c-1.65,0-3-1.35-3-3
			l0,0c0-1.65,1.35-3,3-3h28C65.65,29,67,30.35,67,32L67,32z"/>
	</g>
	<g>
		<path fill="none" stroke="#000000" stroke-width="4" stroke-miterlimit="10" d="M72,82c0,1.65-1.35,3-3,3H31c-1.65,0-3-1.35-3-3
			l0,0c0-1.65,1.35-3,3-3h38C70.65,79,72,80.35,72,82L72,82z"/>
	</g>
	<g>
		<path fill="none" stroke="#000000" stroke-width="4" stroke-miterlimit="10" d="M31,10v16c0,1.65,1.35,3,3,3h32c1.65,0,3-1.35,3-3
			V10"/>
	</g>
	<polyline fill="none" stroke="#000000" stroke-width="4" stroke-miterlimit="10" points="69,16 69,10 62,10 62,16 56,16 56,10 
		44,10 44,16 38,16 38,10 31,10 31,16 	"/>
	<path fill="none" stroke="#000000" stroke-width="4" stroke-miterlimit="10" d="M68.262,79C66.464,72.751,62,70.139,62,35H38
		c0,35.139-4.464,37.751-6.262,44H68.262z"/>
</g>
</svg>