<?xml version="1.0" encoding="utf-8"?>

<!DOCTYPE svg PUBLIC "-//W3C//DTD SVG 1.1//EN" "http://www.w3.org/Graphics/SVG/1.1/DTD/svg11.dtd">
<!-- Uploaded to: SVG Repo, www.svgrepo.com, Generator: SVG Repo Mixer Tools -->
<svg version="1.1" id="Layer_1" xmlns="http://www.w3.org/2000/svg" xmlns:xlink="http://www.w3.org/1999/xlink" 
	 width="60px" height="60px" viewBox="0 0 100 100" enable-background="new 0 0 100 100" xml:space="preserve">
<g>
	<g>
		<path fill="none" stroke="#000000" stroke-width="4" stroke-miterlimit="10" d="M73,89c0,2.2-1.8,4-4,4H31c-2.2,0-4-1.8-4-4l0,0
			c0-2.2,1.8-4,4-4h38C71.2,85,73,86.8,73,89L73,89z"/>
	</g>
	<g>
		<path fill="none" stroke="#000000" stroke-width="4" stroke-miterlimit="10" d="M63,40c0,1.65-1.35,3-3,3H40c-1.65,0-3-1.35-3-3
			l0,0c0-1.65,1.35-3,3-3h20C61.65,37,63,38.35,63,40L63,40z"/>
	</g>
	<g>
		<path fill="none" stroke="#000000" stroke-width="4" stroke-miterlimit="10" d="M68,82c0,1.65-1.35,3-3,3H35c-1.65,0-3-1.35-3-3
			l0,0c0-1.65,1.35-3,3-3h30C66.65,79,68,80.35,68,82L68,82z"/>
	</g>
	<path fill="none" stroke="#000000" stroke-width="4" stroke-miterlimit="10" d="M50,5c0,5-13,16-13,21s4,11,4,11h18c0,0,4-6,4-11
		S50,10,50,5z"/>
	<line fill="none" stroke="#000000" stroke-width="4" stroke-miterlimit="10" x1="48" y1="23" x2="44" y2="15"/>
	<path fill="none" stroke="#000000" stroke-width="4" stroke-miterlimit="10" d="M62.578,79c-0.942-5.738-3.17-8.413-3.528-36h-18.1
		c-0.358,27.587-2.586,30.262-3.528,36H62.578z"/>
</g>
</svg>