<?xml version="1.0" encoding="utf-8"?>

<!DOCTYPE svg PUBLIC "-//W3C//DTD SVG 1.1//EN" "http://www.w3.org/Graphics/SVG/1.1/DTD/svg11.dtd">
<!-- Uploaded to: SVG Repo, www.svgrepo.com, Generator: SVG Repo Mixer Tools -->
<svg version="1.1" id="Layer_1" xmlns="http://www.w3.org/2000/svg" xmlns:xlink="http://www.w3.org/1999/xlink" 
	 width="60px" height="60px" viewBox="0 0 100 100" enable-background="new 0 0 100 100" xml:space="preserve">
<g>
	<g>
		<path fill="none" stroke="#000000" stroke-width="4" stroke-miterlimit="10" d="M73,89c0,2.2-1.8,4-4,4H31c-2.2,0-4-1.8-4-4l0,0
			c0-2.2,1.8-4,4-4h38C71.2,85,73,86.8,73,89L73,89z"/>
	</g>
	<circle fill="none" stroke="#000000" stroke-width="4" stroke-miterlimit="10" cx="50" cy="22" r="13"/>
	<g>
		<path fill="none" stroke="#000000" stroke-width="4" stroke-miterlimit="10" d="M63,38c0,1.65-1.35,3-3,3H40c-1.65,0-3-1.35-3-3
			l0,0c0-1.65,1.35-3,3-3h20C61.65,35,63,36.35,63,38L63,38z"/>
	</g>
	<g>
		<path fill="none" stroke="#000000" stroke-width="4" stroke-miterlimit="10" d="M68,82c0,1.65-1.35,3-3,3H35c-1.65,0-3-1.35-3-3
			l0,0c0-1.65,1.35-3,3-3h30C66.65,79,68,80.35,68,82L68,82z"/>
	</g>
	<path fill="none" stroke="#000000" stroke-width="4" stroke-miterlimit="10" d="M63.99,79C62.052,74.959,58,74.478,58,41H42
		c0,33.478-4.052,33.959-5.99,38H63.99z"/>
</g>
</svg>